<svg width="12" height="12" viewBox="0 0 12 12" fill="none" xmlns="http://www.w3.org/2000/svg">
<path d="M5.99995 2.43741C6.31061 2.43741 6.56245 2.18557 6.56245 1.87491C6.56245 1.56425 6.31061 1.31241 5.99995 1.31241C5.68929 1.31241 5.43745 1.56425 5.43745 1.87491C5.43745 2.18557 5.68929 2.43741 5.99995 2.43741Z" stroke="#949AAB" stroke-width="1.12173" stroke-linecap="round" stroke-linejoin="round"/>
<path d="M5.99995 6.56221C6.31061 6.56221 6.56245 6.31037 6.56245 5.99971C6.56245 5.68905 6.31061 5.43721 5.99995 5.43721C5.68929 5.43721 5.43745 5.68905 5.43745 5.99971C5.43745 6.31037 5.68929 6.56221 5.99995 6.56221Z" stroke="#949AAB" stroke-width="1.12173" stroke-linecap="round" stroke-linejoin="round"/>
<path d="M5.99995 10.6872C6.31061 10.6872 6.56245 10.4354 6.56245 10.1247C6.56245 9.81408 6.31061 9.56224 5.99995 9.56224C5.68929 9.56224 5.43745 9.81408 5.43745 10.1247C5.43745 10.4354 5.68929 10.6872 5.99995 10.6872Z" stroke="#949AAB" stroke-width="1.12173" stroke-linecap="round" stroke-linejoin="round"/>
</svg>
