<svg width="17" height="17" viewBox="0 0 17 17" fill="none" xmlns="http://www.w3.org/2000/svg">
<path d="M9.917 1.41646H4.25033C3.87461 1.41646 3.51428 1.56571 3.2486 1.83139C2.98292 2.09707 2.83367 2.4574 2.83367 2.83313V14.1665C2.83367 14.5422 2.98292 14.9025 3.2486 15.1682C3.51428 15.4339 3.87461 15.5831 4.25033 15.5831H12.7503C13.1261 15.5831 13.4864 15.4339 13.7521 15.1682C14.0177 14.9025 14.167 14.5422 14.167 14.1665V5.66646M9.917 1.41646L14.167 5.66646M9.917 1.41646L9.917 5.66646H14.167M11.3337 9.20813H5.667M11.3337 12.0415H5.667M7.08367 6.37479H5.667" stroke="#1A1A1A" stroke-width="0.829517" stroke-linecap="round" stroke-linejoin="round"/>
</svg>
